<?xml version="1.0" encoding="UTF-8" standalone="no"?>
<!DOCTYPE svg PUBLIC "-//W3C//DTD SVG 1.1//EN" "http://www.w3.org/Graphics/SVG/1.1/DTD/svg11.dtd">
<svg version="1.1" xmlns="http://www.w3.org/2000/svg" xmlns:xlink="http://www.w3.org/1999/xlink" preserveAspectRatio="xMidYMid meet" width="600" height="900" viewBox="0 0 700 800"><defs><path d="M410.26 113.82L411.24 122.87L402.34 118.31L393.44 113.74L401.36 109.26L409.28 104.77L410.26 113.82Z" id="XtLnmXZC2y"></path><path d="M196.75 73.72L211.85 92.87L182.47 93.5L153.09 94.13L167.36 74.35L181.64 54.57L196.75 73.72Z" id="JDXdbcjlS3"></path><path d="M29.84 125.84L27.14 134.53L20.79 126.81L14.44 119.08L23.49 118.11L32.54 117.14L29.84 125.84Z" id="yD1tAAa9ep"></path><path d="M149.66 154.33L150.64 163.38L141.74 158.82L132.85 154.26L140.76 149.77L148.68 145.28L149.66 154.33Z" id="poSbkOuYCK"></path><path d="M269.06 158.95L270.04 168L261.14 163.44L252.25 158.87L260.17 154.39L268.09 149.9L269.06 158.95Z" id="TgilqhYapw"></path><path d="M281.63 21.94L282.61 30.99L273.71 26.43L264.81 21.86L272.73 17.38L280.65 12.89L281.63 21.94Z" id="falDYtbdXT"></path><path d="M65.99 253.31L66.97 262.36L58.07 257.79L49.17 253.23L57.09 248.74L65.01 244.26L65.99 253.31Z" id="bifuxY0VSW"></path><path d="M226.42 284.67L227.39 293.72L218.49 289.16L209.6 284.6L217.52 280.11L225.44 275.62L226.42 284.67Z" id="YmVcInerui"></path><path d="M315.05 414.33L316.03 423.38L307.13 418.82L298.23 414.26L306.15 409.77L314.07 405.28L315.05 414.33Z" id="J5asWX3V1H"></path><path d="M392.57 274.76L393.55 283.81L384.65 279.25L375.75 274.68L383.67 270.2L391.59 265.71L392.57 274.76Z" id="Vc9iDvZrWx"></path><path d="M102.57 374.5L103.55 383.55L94.65 378.99L85.75 374.43L93.67 369.94L101.59 365.45L102.57 374.5Z" id="AEvPh6SWDd"></path><path d="M540.67 45.38L542.39 54.32L533.15 50.5L523.9 46.68L531.43 41.56L538.96 36.44L540.67 45.38Z" id="KgFyzAjG3O"></path><path d="M523.38 198.46L518.01 191.11L528 190.61L537.98 190.11L533.37 197.95L528.76 205.8L523.38 198.46Z" id="Y61Wqbwvqp"></path><path d="M527.06 356.29L530.12 370.92L513.4 362.35L496.69 353.78L510.35 347.72L524.01 341.67L527.06 356.29Z" id="moDz0E798m"></path><path d="M163.94 521.34L164.91 530.39L156.02 525.83L147.12 521.27L155.04 516.78L162.96 512.29L163.94 521.34Z" id="iaa33XkwWV"></path><path d="M424.33 526.51L429.31 534.13L419.31 534.1L409.31 534.08L414.33 526.48L419.35 518.89L424.33 526.51Z" id="bE70lmXwVF"></path><path d="M60.86 619.12L61.84 628.17L52.94 623.61L44.04 619.04L51.96 614.56L59.88 610.07L60.86 619.12Z" id="PZuFj9rN"></path><path d="M275.99 603.48L276.97 612.53L268.07 607.97L259.17 603.4L267.09 598.92L275.01 594.43L275.99 603.48Z" id="GgCae78l1Y"></path><path d="M586.6 573.08L577.52 573.64L582.48 564.96L587.44 556.28L591.56 564.39L595.69 572.51L586.6 573.08Z" id="VF3n9iU4OF"></path><path d="M39.66 29.33L141.37 152.05" id="cqLZi32cJM"></path><path d="M148.79 157.57L64.11 252.46L56.41 616.84L159.91 518.47L519.15 357.67L529.42 199.43L406.25 111.33L533.69 44.61L282.22 18.95L179.58 76.26L148.79 157.57Z" id="fs3Q6fGFAk"></path><path d="M29.23 132.25L60.83 250.29L221.64 283.65L310.59 414.52L420.93 529.99L588.58 571.04L273.81 603.55L56.55 618.09L96.75 372.6" id="Bf0Xbob19Z"></path><path d="M101.54 372.22L264.59 157.76L388.98 275.67L516.73 355.13L403.27 113.33L278.88 21.06" id="myvZDpNhtd"></path><path d="M277.23 18.9L40.3 26.6L179.72 77.07L266.11 155.76L408.1 110.43L223.35 282.35L386.72 275.51L593.71 570.6L521.01 357.62L633.91 6.93L529.56 197.67L392.7 265.24L314.01 416.64L271.25 602.25L104.45 374.73L147.22 156.61L25.76 124.97" id="NzFtiZjoj1"></path><path d="M636.84 9.08C636.84 12.09 634.01 14.54 630.53 14.54C627.04 14.54 624.21 12.09 624.21 9.08C624.21 6.07 627.04 3.62 630.53 3.62C634.01 3.62 636.84 6.07 636.84 9.08Z" id="v6xn1ASxsH"></path><path d="M325.13 413.61C325.13 420.72 318.81 426.49 311.02 426.49C303.23 426.49 296.91 420.72 296.91 413.61C296.91 406.49 303.23 400.72 311.02 400.72C318.81 400.72 325.13 406.49 325.13 413.61Z" id="VoaZ4AW9Om"></path><path d="M76.71 252.08C76.71 258.85 70.62 264.36 63.13 264.36C55.63 264.36 49.54 258.85 49.54 252.08C49.54 245.3 55.63 239.79 63.13 239.79C70.62 239.79 76.71 245.3 76.71 252.08Z" id="IeEkK94Ml7"></path><path d="M46.29 29.61C46.29 33.39 43.03 36.45 39.02 36.45C35.01 36.45 31.75 33.39 31.75 29.61C31.75 25.83 35.01 22.77 39.02 22.77C43.03 22.77 46.29 25.83 46.29 29.61Z" id="ZfgfwrJZgD"></path><path d="M136.94 373.42C136.94 388.99 123.53 401.62 107.02 401.62C90.51 401.62 77.1 388.99 77.1 373.42C77.1 357.85 90.51 345.21 107.02 345.21C123.53 345.21 136.94 357.85 136.94 373.42Z" id="S4vJJZP8B1"></path></defs><g visibility="visible"><g visibility="visible"><g><use xlink:href="#XtLnmXZC2y" opacity="1" fill="#cfd7d2" fill-opacity="1"></use></g><g><use xlink:href="#JDXdbcjlS3" opacity="1" fill="#cfd7d2" fill-opacity="1"></use></g><g><use xlink:href="#yD1tAAa9ep" opacity="1" fill="#cfd7d2" fill-opacity="1"></use></g><g><use xlink:href="#poSbkOuYCK" opacity="1" fill="#cfd7d2" fill-opacity="1"></use></g><g><use xlink:href="#TgilqhYapw" opacity="1" fill="#cfd7d2" fill-opacity="1"></use></g><g><use xlink:href="#falDYtbdXT" opacity="1" fill="#cfd7d2" fill-opacity="1"></use></g><g><use xlink:href="#bifuxY0VSW" opacity="1" fill="#cfd7d2" fill-opacity="1"></use></g><g><use xlink:href="#YmVcInerui" opacity="1" fill="#cfd7d2" fill-opacity="1"></use></g><g><use xlink:href="#J5asWX3V1H" opacity="1" fill="#cfd7d2" fill-opacity="1"></use></g><g><use xlink:href="#Vc9iDvZrWx" opacity="1" fill="#cfd7d2" fill-opacity="1"></use></g><g><use xlink:href="#AEvPh6SWDd" opacity="1" fill="#cfd7d2" fill-opacity="1"></use></g><g><use xlink:href="#KgFyzAjG3O" opacity="1" fill="#cfd7d2" fill-opacity="1"></use></g><g><use xlink:href="#Y61Wqbwvqp" opacity="1" fill="#cfd7d2" fill-opacity="1"></use></g><g><use xlink:href="#moDz0E798m" opacity="1" fill="#cfd7d2" fill-opacity="1"></use></g><g><use xlink:href="#iaa33XkwWV" opacity="1" fill="#cfd7d2" fill-opacity="1"></use></g><g><use xlink:href="#bE70lmXwVF" opacity="1" fill="#cfd7d2" fill-opacity="1"></use></g><g><use xlink:href="#PZuFj9rN" opacity="1" fill="#cfd7d2" fill-opacity="1"></use></g><g><use xlink:href="#GgCae78l1Y" opacity="1" fill="#cfd7d2" fill-opacity="1"></use></g><g><use xlink:href="#VF3n9iU4OF" opacity="1" fill="#cfd7d2" fill-opacity="1"></use></g><g><use xlink:href="#cqLZi32cJM" opacity="1" fill="#cfd7d2" fill-opacity="1"></use><g><use xlink:href="#cqLZi32cJM" opacity="1" fill-opacity="0" stroke="#cfd7d2" stroke-width="1" stroke-opacity="1"></use></g></g><g><g><use xlink:href="#fs3Q6fGFAk" opacity="1" fill-opacity="0" stroke="#cfd7d2" stroke-width="1" stroke-opacity="1"></use></g></g><g><g><use xlink:href="#Bf0Xbob19Z" opacity="1" fill-opacity="0" stroke="#cfd7d2" stroke-width="1" stroke-opacity="1"></use></g></g><g><g><use xlink:href="#myvZDpNhtd" opacity="1" fill-opacity="0" stroke="#cfd7d2" stroke-width="1" stroke-opacity="1"></use></g></g><g><g><use xlink:href="#NzFtiZjoj1" opacity="1" fill-opacity="0" stroke="#cfd7d2" stroke-width="1" stroke-opacity="1"></use></g></g><g><use xlink:href="#v6xn1ASxsH" opacity="1" fill="#cfd7d2" fill-opacity="1"></use></g><g><use xlink:href="#VoaZ4AW9Om" opacity="1" fill="#cfd7d2" fill-opacity="1"></use></g><g><use xlink:href="#IeEkK94Ml7" opacity="1" fill="#cfd7d2" fill-opacity="1"></use></g><g><use xlink:href="#ZfgfwrJZgD" opacity="1" fill="#cfd7d2" fill-opacity="1"></use></g><g><use xlink:href="#S4vJJZP8B1" opacity="1" fill="#cfd7d2" fill-opacity="1"></use></g></g></g></svg>