<?xml version="1.0" encoding="UTF-8" standalone="no"?>
<!DOCTYPE svg PUBLIC "-//W3C//DTD SVG 1.1//EN" "http://www.w3.org/Graphics/SVG/1.1/DTD/svg11.dtd">
<svg version="1.1" xmlns="http://www.w3.org/2000/svg" xmlns:xlink="http://www.w3.org/1999/xlink" preserveAspectRatio="xMidYMid meet" width="2500" height="2500" viewBox="0 0 2500 2500"><defs><path d="M1595.15 444.09L1599.06 480.27L1563.52 462.03L1527.98 443.79L1559.61 425.85L1591.24 407.92L1595.15 444.09Z" id="equCMoWeYK"></path><path d="M742.48 283.8L802.81 360.36L685.47 362.87L568.13 365.39L625.13 286.32L682.14 207.25L742.48 283.8Z" id="s6Bp3Vt8Ez"></path><path d="M75.95 492.12L65.17 526.87L39.8 496L14.44 465.13L50.58 461.25L86.73 457.37L75.95 492.12Z" id="e1wbMqZqoh"></path><path d="M554.46 606.03L558.36 642.2L522.83 623.96L487.29 605.73L518.92 587.79L550.55 569.85L554.46 606.03Z" id="P289qj2Rh3"></path><path d="M1031.28 624.47L1035.19 660.65L999.65 642.41L964.12 624.17L995.74 606.24L1027.37 588.3L1031.28 624.47Z" id="TsZNX8YphU"></path><path d="M1081.46 76.84L1085.36 113.01L1049.83 94.77L1014.29 76.54L1045.92 58.6L1077.55 40.66L1081.46 76.84Z" id="PbiTjSymsH"></path><path d="M220.3 1001.64L224.2 1037.81L188.67 1019.57L153.13 1001.34L184.76 983.4L216.39 965.46L220.3 1001.64Z" id="Hcr34dOZFv"></path><path d="M860.96 1127.02L864.87 1163.19L829.33 1144.95L793.8 1126.72L825.42 1108.78L857.05 1090.84L860.96 1127.02Z" id="thvRLmmCN0"></path><path d="M1214.91 1645.27L1218.82 1681.45L1183.28 1663.21L1147.75 1644.97L1179.38 1627.03L1211.01 1609.1L1214.91 1645.27Z" id="PCXN1uB0kF"></path><path d="M1524.5 1087.39L1528.4 1123.56L1492.87 1105.32L1457.33 1087.09L1488.96 1069.15L1520.59 1051.21L1524.5 1087.39Z" id="GdWt3c5YCN"></path><path d="M366.38 1486.07L370.29 1522.25L334.75 1504.01L299.22 1485.77L330.85 1467.83L362.47 1449.9L366.38 1486.07Z" id="CykwVLdBU1"></path><path d="M2115.94 170.53L2122.79 206.26L2085.89 191L2048.98 175.73L2079.03 155.26L2109.09 134.8L2115.94 170.53Z" id="zhGOJ6y31Q"></path><path d="M2046.9 782.39L2025.43 753.02L2065.32 751.02L2105.2 749.02L2086.78 780.39L2068.36 811.76L2046.9 782.39Z" id="xw3a6iF35L"></path><path d="M2061.59 1413.29L2073.79 1471.74L2007.05 1437.48L1940.31 1403.23L1994.84 1379.03L2049.39 1354.84L2061.59 1413.29Z" id="C2mpZET7DZ"></path><path d="M611.45 2073L615.36 2109.17L579.82 2090.93L544.29 2072.7L575.92 2054.76L607.54 2036.82L611.45 2073Z" id="f8ckS7WQMl"></path><path d="M1651.35 2093.65L1671.23 2124.11L1631.3 2124.01L1591.36 2123.9L1611.41 2093.55L1631.46 2063.2L1651.35 2093.65Z" id="rASOP2raQr"></path><path d="M199.82 2463.83L203.72 2500L168.19 2481.76L132.65 2463.53L164.28 2445.59L195.91 2427.65L199.82 2463.83Z" id="z9vg3sgfil"></path><path d="M1058.93 2401.31L1062.84 2437.48L1027.3 2419.24L991.76 2401.01L1023.39 2383.07L1055.02 2365.13L1058.93 2401.31Z" id="rndWITUxim"></path><path d="M2299.37 2279.78L2263.08 2282.05L2282.9 2247.34L2302.72 2212.64L2319.18 2245.08L2335.65 2277.52L2299.37 2279.78Z" id="u7CD67H5UB"></path><path d="M115.15 106.38L521.32 596.91" id="YzA7TJhIKJ"></path><path d="M550.96 618.97L212.79 998.25L182.05 2454.71L595.36 2061.53L2030 1418.78L2070.99 786.28L1579.12 434.13L2088.07 167.46L1083.82 64.89L673.93 293.96L550.96 618.97Z" id="p261uFEFYZ"></path><path d="M73.52 517.77L199.7 989.57L841.87 1122.91L1197.12 1646.01L1637.76 2107.56L2307.26 2271.66L1050.24 2401.58L182.62 2459.7L343.16 1478.48" id="zdipp4xRLN"></path><path d="M362.28 1476.95L1013.42 619.74L1510.16 1091.04L2020.33 1408.65L1567.22 442.15L1070.47 73.31" id="AnvpNiL1ls"></path><path d="M1063.9 64.7L117.72 95.47L674.5 297.19L1019.5 611.73L1586.52 430.52L848.7 1117.72L1501.13 1090.37L2327.75 2269.9L2037.41 1418.59L2488.3 16.84L2071.57 779.25L1525.04 1049.35L1210.78 1654.49L1039.99 2396.4L373.91 1486.97L544.7 615.14L59.65 488.65" id="Vu6sszQY20"></path><path d="M2500 25.44C2500 37.49 2488.7 47.26 2474.78 47.26C2460.87 47.26 2449.57 37.49 2449.57 25.44C2449.57 13.4 2460.87 3.62 2474.78 3.62C2488.7 3.62 2500 13.4 2500 25.44Z" id="axM7ZEpkZL"></path><path d="M1255.19 1642.37C1255.19 1670.79 1229.93 1693.87 1198.83 1693.87C1167.72 1693.87 1142.46 1670.79 1142.46 1642.37C1142.46 1613.94 1167.72 1590.86 1198.83 1590.86C1229.93 1590.86 1255.19 1613.94 1255.19 1642.37Z" id="M4lb5UR53Z"></path><path d="M263.12 996.72C263.12 1023.81 238.81 1045.81 208.87 1045.81C178.93 1045.81 154.62 1023.81 154.62 996.72C154.62 969.62 178.93 947.63 208.87 947.63C238.81 947.63 263.12 969.62 263.12 996.72Z" id="YufGqTPlv6"></path><path d="M141.63 107.5C141.63 122.59 128.62 134.85 112.6 134.85C96.57 134.85 83.56 122.59 83.56 107.5C83.56 92.4 96.57 80.15 112.6 80.15C128.62 80.15 141.63 92.4 141.63 107.5Z" id="fkWFQlnjIw"></path><path d="M503.63 1481.74C503.63 1543.96 450.09 1594.48 384.15 1594.48C318.21 1594.48 264.67 1543.96 264.67 1481.74C264.67 1419.51 318.21 1369 384.15 1369C450.09 1369 503.63 1419.51 503.63 1481.74Z" id="ihvBJvx0XO"></path></defs><g visibility="visible"><g visibility="visible"><g><use xlink:href="#equCMoWeYK" opacity="1" fill="#cfd7d2" fill-opacity="1"></use></g><g><use xlink:href="#s6Bp3Vt8Ez" opacity="1" fill="#cfd7d2" fill-opacity="1"></use></g><g><use xlink:href="#e1wbMqZqoh" opacity="1" fill="#cfd7d2" fill-opacity="1"></use></g><g><use xlink:href="#P289qj2Rh3" opacity="1" fill="#cfd7d2" fill-opacity="1"></use></g><g><use xlink:href="#TsZNX8YphU" opacity="1" fill="#cfd7d2" fill-opacity="1"></use></g><g><use xlink:href="#PbiTjSymsH" opacity="1" fill="#cfd7d2" fill-opacity="1"></use></g><g><use xlink:href="#Hcr34dOZFv" opacity="1" fill="#cfd7d2" fill-opacity="1"></use></g><g><use xlink:href="#thvRLmmCN0" opacity="1" fill="#cfd7d2" fill-opacity="1"></use></g><g><use xlink:href="#PCXN1uB0kF" opacity="1" fill="#cfd7d2" fill-opacity="1"></use></g><g><use xlink:href="#GdWt3c5YCN" opacity="1" fill="#cfd7d2" fill-opacity="1"></use></g><g><use xlink:href="#CykwVLdBU1" opacity="1" fill="#cfd7d2" fill-opacity="1"></use></g><g><use xlink:href="#zhGOJ6y31Q" opacity="1" fill="#cfd7d2" fill-opacity="1"></use></g><g><use xlink:href="#xw3a6iF35L" opacity="1" fill="#cfd7d2" fill-opacity="1"></use></g><g><use xlink:href="#C2mpZET7DZ" opacity="1" fill="#cfd7d2" fill-opacity="1"></use></g><g><use xlink:href="#f8ckS7WQMl" opacity="1" fill="#cfd7d2" fill-opacity="1"></use></g><g><use xlink:href="#rASOP2raQr" opacity="1" fill="#cfd7d2" fill-opacity="1"></use></g><g><use xlink:href="#z9vg3sgfil" opacity="1" fill="#cfd7d2" fill-opacity="1"></use></g><g><use xlink:href="#rndWITUxim" opacity="1" fill="#cfd7d2" fill-opacity="1"></use></g><g><use xlink:href="#u7CD67H5UB" opacity="1" fill="#cfd7d2" fill-opacity="1"></use></g><g><use xlink:href="#YzA7TJhIKJ" opacity="1" fill="#cfd7d2" fill-opacity="1"></use><g><use xlink:href="#YzA7TJhIKJ" opacity="1" fill-opacity="0" stroke="#cfd7d2" stroke-width="1" stroke-opacity="1"></use></g></g><g><g><use xlink:href="#p261uFEFYZ" opacity="1" fill-opacity="0" stroke="#cfd7d2" stroke-width="1" stroke-opacity="1"></use></g></g><g><g><use xlink:href="#zdipp4xRLN" opacity="1" fill-opacity="0" stroke="#cfd7d2" stroke-width="1" stroke-opacity="1"></use></g></g><g><g><use xlink:href="#AnvpNiL1ls" opacity="1" fill-opacity="0" stroke="#cfd7d2" stroke-width="1" stroke-opacity="1"></use></g></g><g><g><use xlink:href="#Vu6sszQY20" opacity="1" fill-opacity="0" stroke="#cfd7d2" stroke-width="1" stroke-opacity="1"></use></g></g><g><use xlink:href="#axM7ZEpkZL" opacity="1" fill="#cfd7d2" fill-opacity="1"></use></g><g><use xlink:href="#M4lb5UR53Z" opacity="1" fill="#cfd7d2" fill-opacity="1"></use></g><g><use xlink:href="#YufGqTPlv6" opacity="1" fill="#cfd7d2" fill-opacity="1"></use></g><g><use xlink:href="#fkWFQlnjIw" opacity="1" fill="#cfd7d2" fill-opacity="1"></use></g><g><use xlink:href="#ihvBJvx0XO" opacity="1" fill="#cfd7d2" fill-opacity="1"></use></g></g></g></svg>